<?xml version="1.0" encoding="utf-8"?>
<!-- Generator: Adobe Illustrator 24.0.2, SVG Export Plug-In . SVG Version: 6.00 Build 0)  -->
<svg version="1.1" id="Layer_1" xmlns="http://www.w3.org/2000/svg" xmlns:xlink="http://www.w3.org/1999/xlink" x="0px" y="0px"
	 viewBox="0 0 165.1 132.3" style="enable-background:new 0 0 165.1 132.3;" xml:space="preserve">
<style type="text/css">
	.st0{fill:#FFFFFF;}
</style>
<path class="st0" d="M100.5,106.3c-1.2,8.4-2.4,16.1-3.5,23.5c-16.2,5.7-48.9,2.8-71.4-25c-6.2,3.2-12.7,4.5-19.3,0.9
	c-2.8-1.5-5.6-3.1-6.3-7.2c4.5-5.4,10.7-6.8,17.8-6.2c-0.1-3.9-3.5-6.8-2.3-11c1.1-0.1,2.3-0.3,3.8-0.5c2.8,7.6,5.9,14.6,11.4,21.4
	c1.5-6.3,3.1-11.7,8.6-14.4c8.3,4,9.7,14.6,3.5,25.7c4.5,4.8,14.1,9.7,22.8,11.4c1.6-2.5,3.2-5.1,4.9-7.7c1.6-2.5,3-5.2,4.8-7.6
	c1.6-2.3,2.5-2,5,1.1c-1.4,2.4-2.9,5-4.4,7.5c-1.4,2.4-2.9,4.8-4.4,7.2c4,2.2,14.3,2.4,21.1,0.4c0.7-5.1,1.5-10.4,2.3-16
	c-2.1-0.8-3.8-1.5-5.5-2.1c-18.7-6.8-34.2-18-45.7-34.2C32,57.4,30.3,39.5,37.5,21c2.2-5.7,5.7-10.5,10.5-14.4
	C58-1.6,71.7-2.2,82.4,5c1.4,0.9,2.7,2,3.9,2.9c3.9,0.5,7.6,1,10.9,1.4c1.7,2.4,1.2,3.7-0.5,4.7c-1.2,0.7-2.4,1.2-3.6,1.8
	C85,20.1,78.5,26.1,73.9,34.2c-0.9,1.5-1.6,3.2-2.5,5.1c1,0,1.5,0.2,1.9,0c8.2-4.2,16.1-2.9,23.1,2.2c4.9,3.6,9.3,8.1,13.2,12.8
	c4,4.8,7.1,10.4,10.6,15.7c0.9,1.4,1.7,2.8,2.8,4.5c13.3-8.3,26.2-16.4,38.8-24.3c3.3,0.5,3.4,2.6,3.3,4.6
	c-0.3,5.9-1.8,11.5-5.2,16.5c-5.7,8.5-13.7,13.9-23.2,17.4c-1.9,0.7-3.7,1.3-5.6,2c-0.2,3.7,3.4,6.5,1.7,10.4
	c-0.8,0.3-1.7,0.7-2.7,0.9c-18.7,3.1-35.9-0.3-50.4-13.1c-22.2-19.7-21.6-51.6,1.1-70.9c1.4-1.1,2.7-2.3,3.7-4.3
	c-1.8,0.2-3.5,0.2-5.2,0.7c-15.9,3.9-26.7,13.6-31,29.4c-4.3,16,0.1,30,12.4,41.3c9.7,8.9,21,15.2,33.6,19.2
	C96.3,104.7,98.1,105.4,100.5,106.3z M122.4,86.8c-0.1-1.1,0-1.6-0.2-2c-5.4-11.1-11.4-21.9-19.7-31.1c-2.5-2.8-5.4-5.5-8.5-7.6
	c-2.7-1.8-5.9-3.3-9-3.9c-9.3-1.8-17.5,6.6-16,15.9c1.4,8.7,6.4,14.9,13.3,19.7c10,7,21.3,9.9,33.4,9.8
	C117.9,87.6,120.1,87.1,122.4,86.8z M41.4,56.9c0.2-7.5,1.4-14.7,4.5-21.4c3-6.6,7.3-12.2,13-16.9c5.7-4.7,12.4-7.4,19.8-9.7
	c-10.4-6.8-23.5-4-31.2,5.3c-6,7.4-8.7,16-9.1,25.4C38.2,45.6,39.1,51.4,41.4,56.9z M128.2,85.3c14.9-1.4,31.4-16.1,30.8-27.4
	c-11.4,7.2-22.5,14.2-33.8,21.2C126.3,81.6,127.3,83.5,128.2,85.3z M125.4,92c-6.7,0-13.4,0.6-19.9-0.2c-6.3-0.7-12.4-2.9-18.6-4.5
	c11.9,9.1,25.3,12.1,40.5,10C126.6,95.1,126,93.7,125.4,92z M39.2,94.7c-4.1,5.6-4.1,10.5-0.4,14.3C42.5,104.1,42.6,100,39.2,94.7z
	 M7.4,99.7c4.5,4,9,4.3,13.9,0.7C17,96.6,11.8,96.4,7.4,99.7z"/>
</svg>
